<svg xmlns="http://www.w3.org/2000/svg" data-name="Слой 1" viewBox="0 0 40 40"><path fill="#b0c1d4" d="M17.5 29.5H24.5V35.5H17.5z"/><path fill="#66798f" d="M24,30v5H18V30h6m1-1H17v7h8V29Z"/><path fill="#c2e8ff" d="M6.5 7.5H38.5V29.5H6.5z"/><path fill="#66798f" d="M38,8V29H7V8H38m1-1H6V30H39V7Z"/><path fill="#66798f" d="M6 26H39V30H6zM31.82 36H13a3.3 3.3 0 0 1 3-3H29a3 3 0 0 1 2.82 3z"/><path fill="#ffeea3" d="M34 28H37V29H34z"/><path fill="#e1ebf2" d="M1.5 1.5H19.5V38.5H1.5z"/><path fill="#66798f" d="M19,2V38H2V2H19m1-1H1V39H20V1Z"/><path fill="#8bb7f0" d="M10.5 25.5A2 2 0 1 0 10.5 29.5A2 2 0 1 0 10.5 25.5Z"/><path fill="#4e7ab5" d="M10.5,26A1.5,1.5,0,1,1,9,27.5,1.5,1.5,0,0,1,10.5,26m0-1A2.5,2.5,0,1,0,13,27.5,2.5,2.5,0,0,0,10.5,25Z"/><path fill="#b0c1d4" d="M4.5 12.5H16.5V14.5H4.5z"/><path fill="#66798f" d="M16,13v1H5V13H16m1-1H4v3H17V12Z"/><path fill="#b0c1d4" d="M4.5 6.5H16.5V9.5H4.5z"/><path fill="#66798f" d="M16,7V9H5V7H16m1-1H4v4H17V6Z"/></svg>